<mxfile host="app.diagrams.net" modified="2023-11-03T14:57:32.086Z" agent="Mozilla/5.0 (Windows NT 10.0; Win64; x64) AppleWebKit/537.36 (KHTML, like Gecko) Chrome/118.0.0.0 Safari/537.36" etag="rKhclSfMODkEbFEWgLYw" version="22.0.8" type="device">
  <diagram name="Page-1" id="42789a77-a242-8287-6e28-9cd8cfd52e62">
    <mxGraphModel dx="1613" dy="663" grid="0" gridSize="10" guides="1" tooltips="1" connect="1" arrows="1" fold="1" page="1" pageScale="1" pageWidth="1100" pageHeight="850" background="none" math="0" shadow="0">
      <root>
        <mxCell id="0" />
        <mxCell id="1" parent="0" />
        <mxCell id="1ea317790d2ca983-13" value="isVideoOf" style="edgeStyle=none;rounded=1;html=1;labelBackgroundColor=none;startArrow=none;startFill=0;startSize=5;endArrow=classicThin;endFill=1;endSize=5;jettySize=auto;orthogonalLoop=1;strokeColor=#B3B3B3;strokeWidth=1;fontFamily=Verdana;fontSize=12;exitX=0;exitY=0.5;exitDx=0;exitDy=0;entryX=1;entryY=0.5;entryDx=0;entryDy=0;" parent="1" source="1ea317790d2ca983-9" target="1ea317790d2ca983-1" edge="1">
          <mxGeometry relative="1" as="geometry">
            <mxPoint x="444" y="268" as="targetPoint" />
          </mxGeometry>
        </mxCell>
        <mxCell id="1ea317790d2ca983-14" value="isPulishedBy" style="edgeStyle=none;rounded=1;html=1;labelBackgroundColor=none;startArrow=none;startFill=0;startSize=5;endArrow=classicThin;endFill=1;endSize=5;jettySize=auto;orthogonalLoop=1;strokeColor=#B3B3B3;strokeWidth=1;fontFamily=Verdana;fontSize=12" parent="1" source="1ea317790d2ca983-1" target="1ea317790d2ca983-3" edge="1">
          <mxGeometry x="-0.0007" relative="1" as="geometry">
            <mxPoint as="offset" />
          </mxGeometry>
        </mxCell>
        <mxCell id="1ea317790d2ca983-1" value="Song" style="ellipse;whiteSpace=wrap;html=1;rounded=0;shadow=1;comic=0;labelBackgroundColor=none;strokeWidth=1;fontFamily=Verdana;fontSize=12;align=center;" parent="1" vertex="1">
          <mxGeometry x="370" y="272.5" width="90" height="60" as="geometry" />
        </mxCell>
        <mxCell id="1ea317790d2ca983-2" value="&lt;span&gt;Album&lt;/span&gt;" style="ellipse;whiteSpace=wrap;html=1;rounded=0;shadow=1;comic=0;labelBackgroundColor=none;strokeWidth=1;fontFamily=Verdana;fontSize=12;align=center;" parent="1" vertex="1">
          <mxGeometry x="714" y="445" width="75" height="50" as="geometry" />
        </mxCell>
        <mxCell id="1ea317790d2ca983-3" value="&lt;span&gt;Artist&lt;/span&gt;" style="ellipse;whiteSpace=wrap;html=1;rounded=0;shadow=1;comic=0;labelBackgroundColor=none;strokeWidth=1;fontFamily=Verdana;fontSize=12;align=center;" parent="1" vertex="1">
          <mxGeometry x="136" y="233" width="75" height="50" as="geometry" />
        </mxCell>
        <mxCell id="1ea317790d2ca983-19" value="publishedBy" style="edgeStyle=none;rounded=1;html=1;labelBackgroundColor=none;startArrow=none;startFill=0;startSize=5;endArrow=classicThin;endFill=1;endSize=5;jettySize=auto;orthogonalLoop=1;strokeColor=#B3B3B3;strokeWidth=1;fontFamily=Verdana;fontSize=12" parent="1" source="1ea317790d2ca983-9" target="1ea317790d2ca983-10" edge="1">
          <mxGeometry relative="1" as="geometry" />
        </mxCell>
        <mxCell id="1ea317790d2ca983-9" value="Video" style="ellipse;whiteSpace=wrap;html=1;rounded=0;shadow=1;comic=0;labelBackgroundColor=none;strokeWidth=1;fontFamily=Verdana;fontSize=12;align=center;" parent="1" vertex="1">
          <mxGeometry x="580" y="278" width="75" height="50" as="geometry" />
        </mxCell>
        <mxCell id="1ea317790d2ca983-10" value="&lt;span&gt;Channel&lt;/span&gt;" style="ellipse;whiteSpace=wrap;html=1;rounded=0;shadow=1;comic=0;labelBackgroundColor=none;strokeWidth=1;fontFamily=Verdana;fontSize=12;align=center;" parent="1" vertex="1">
          <mxGeometry x="820" y="275" width="75" height="50" as="geometry" />
        </mxCell>
        <mxCell id="-lhkFG2HZT-Equ-z4yoy-2" value="belongsTo" style="edgeStyle=none;rounded=1;html=1;labelBackgroundColor=none;startArrow=none;startFill=0;startSize=5;endArrow=classicThin;endFill=1;endSize=5;jettySize=auto;orthogonalLoop=1;strokeColor=#B3B3B3;strokeWidth=1;fontFamily=Verdana;fontSize=12;exitX=0.956;exitY=0.763;exitDx=0;exitDy=0;entryX=0.032;entryY=0.34;entryDx=0;entryDy=0;exitPerimeter=0;entryPerimeter=0;" parent="1" source="1ea317790d2ca983-1" target="1ea317790d2ca983-2" edge="1">
          <mxGeometry relative="1" as="geometry">
            <mxPoint x="440" y="310" as="sourcePoint" />
            <mxPoint x="600" y="310" as="targetPoint" />
          </mxGeometry>
        </mxCell>
        <mxCell id="-lhkFG2HZT-Equ-z4yoy-3" value="&lt;div style=&quot;text-align: left;&quot;&gt;&lt;span style=&quot;background-color: initial;&quot;&gt;Type&lt;/span&gt;&lt;/div&gt;&amp;nbsp; &amp;nbsp; Album" style="text;html=1;strokeColor=none;fillColor=none;align=center;verticalAlign=middle;whiteSpace=wrap;rounded=0;" parent="1" vertex="1">
          <mxGeometry x="734" y="385" width="60" height="30" as="geometry" />
        </mxCell>
        <mxCell id="-lhkFG2HZT-Equ-z4yoy-4" value="" style="endArrow=none;html=1;rounded=0;exitX=0.271;exitY=0.093;exitDx=0;exitDy=0;exitPerimeter=0;entryX=0;entryY=0.25;entryDx=0;entryDy=0;" parent="1" source="1ea317790d2ca983-2" edge="1" target="-lhkFG2HZT-Equ-z4yoy-3">
          <mxGeometry width="50" height="50" relative="1" as="geometry">
            <mxPoint x="110" y="140" as="sourcePoint" />
            <mxPoint x="160" y="90" as="targetPoint" />
          </mxGeometry>
        </mxCell>
        <mxCell id="-lhkFG2HZT-Equ-z4yoy-5" value="" style="endArrow=none;html=1;rounded=0;exitX=0.413;exitY=-0.013;exitDx=0;exitDy=0;exitPerimeter=0;entryX=0.25;entryY=1;entryDx=0;entryDy=0;" parent="1" source="1ea317790d2ca983-2" edge="1" target="-lhkFG2HZT-Equ-z4yoy-3">
          <mxGeometry width="50" height="50" relative="1" as="geometry">
            <mxPoint x="170" y="170" as="sourcePoint" />
            <mxPoint x="170" y="99.9973529411765" as="targetPoint" />
          </mxGeometry>
        </mxCell>
        <mxCell id="-lhkFG2HZT-Equ-z4yoy-6" value="URL" style="text;html=1;strokeColor=none;fillColor=none;align=left;verticalAlign=middle;whiteSpace=wrap;rounded=0;" parent="1" vertex="1">
          <mxGeometry x="154" y="309" width="60" height="30" as="geometry" />
        </mxCell>
        <mxCell id="-lhkFG2HZT-Equ-z4yoy-7" value="" style="endArrow=none;html=1;rounded=0;entryX=0.326;entryY=0.992;entryDx=0;entryDy=0;entryPerimeter=0;exitX=0.25;exitY=0;exitDx=0;exitDy=0;" parent="1" target="fviccIfsdbxI5g3kTzcu-4" edge="1" source="fviccIfsdbxI5g3kTzcu-9">
          <mxGeometry width="50" height="50" relative="1" as="geometry">
            <mxPoint x="41" y="376" as="sourcePoint" />
            <mxPoint x="170" y="430" as="targetPoint" />
          </mxGeometry>
        </mxCell>
        <mxCell id="-lhkFG2HZT-Equ-z4yoy-8" value="" style="endArrow=none;html=1;rounded=0;entryX=0;entryY=1;entryDx=0;entryDy=0;exitX=0;exitY=0.5;exitDx=0;exitDy=0;" parent="1" target="1ea317790d2ca983-3" edge="1" source="-lhkFG2HZT-Equ-z4yoy-6">
          <mxGeometry width="50" height="50" relative="1" as="geometry">
            <mxPoint x="150" y="480" as="sourcePoint" />
            <mxPoint x="160" y="420" as="targetPoint" />
          </mxGeometry>
        </mxCell>
        <mxCell id="-lhkFG2HZT-Equ-z4yoy-9" value="&amp;nbsp; &amp;nbsp; &amp;nbsp; &amp;nbsp; &amp;nbsp; &amp;nbsp; &amp;nbsp; &amp;nbsp; &amp;nbsp; &amp;nbsp; &amp;nbsp; &amp;nbsp; &amp;nbsp; &amp;nbsp; &amp;nbsp; &amp;nbsp; &amp;nbsp; &amp;nbsp; &amp;nbsp; &amp;nbsp;Track&lt;br&gt;&amp;nbsp; &amp;nbsp; &amp;nbsp; &amp;nbsp; &amp;nbsp; &amp;nbsp; &amp;nbsp; &amp;nbsp; &amp;nbsp; &amp;nbsp; &amp;nbsp; &amp;nbsp; &amp;nbsp; &amp;nbsp; &amp;nbsp; &amp;nbsp; &amp;nbsp; &amp;nbsp; URI&lt;br&gt;&amp;nbsp; &amp;nbsp; &amp;nbsp; &amp;nbsp; &amp;nbsp; &amp;nbsp; &amp;nbsp; &amp;nbsp; &amp;nbsp; &amp;nbsp; &amp;nbsp; &amp;nbsp; &amp;nbsp; &amp;nbsp; &amp;nbsp; &amp;nbsp; &amp;nbsp;Duration&lt;br&gt;&amp;nbsp; &amp;nbsp; &amp;nbsp; &amp;nbsp; &amp;nbsp; &amp;nbsp; &amp;nbsp; &amp;nbsp; &amp;nbsp; &amp;nbsp; &amp;nbsp; &amp;nbsp; &amp;nbsp; &amp;nbsp; &amp;nbsp; Streams&lt;br&gt;&lt;br style=&quot;border-color: var(--border-color);&quot;&gt;&amp;nbsp; &amp;nbsp; &amp;nbsp; &amp;nbsp; &amp;nbsp; &amp;nbsp; &amp;nbsp; &amp;nbsp; &amp;nbsp; &amp;nbsp; &amp;nbsp; &amp;nbsp; &amp;nbsp; &amp;nbsp;Energy&lt;br style=&quot;border-color: var(--border-color);&quot;&gt;&amp;nbsp; &amp;nbsp; &amp;nbsp; &amp;nbsp; &amp;nbsp; &amp;nbsp; &amp;nbsp; &amp;nbsp; &amp;nbsp; &amp;nbsp; &amp;nbsp; &amp;nbsp; Key&lt;br&gt;&amp;nbsp; &amp;nbsp; &amp;nbsp; &amp;nbsp; &amp;nbsp; &amp;nbsp; &amp;nbsp; &amp;nbsp; &amp;nbsp; &amp;nbsp; &amp;nbsp;Valence&lt;br&gt;&amp;nbsp; &amp;nbsp; &amp;nbsp; &amp;nbsp; &amp;nbsp; &amp;nbsp; &amp;nbsp; &amp;nbsp; &amp;nbsp; Tempo&lt;br&gt;&amp;nbsp; &amp;nbsp; &amp;nbsp; &amp;nbsp; &amp;nbsp; &amp;nbsp; &amp;nbsp; &amp;nbsp;Danceability&lt;br style=&quot;border-color: var(--border-color);&quot;&gt;&amp;nbsp; &amp;nbsp; &amp;nbsp; &amp;nbsp; &amp;nbsp; &amp;nbsp; Loudness&lt;br style=&quot;border-color: var(--border-color);&quot;&gt;&amp;nbsp; &amp;nbsp; &amp;nbsp; &amp;nbsp; &amp;nbsp;Liveness&lt;br style=&quot;border-color: var(--border-color);&quot;&gt;&amp;nbsp; &amp;nbsp;&amp;nbsp; &amp;nbsp;Instrumentalness&lt;br style=&quot;border-color: var(--border-color);&quot;&gt;&amp;nbsp; &amp;nbsp;Acoustiness&lt;br style=&quot;border-color: var(--border-color);&quot;&gt;Speechiness" style="text;html=1;strokeColor=none;fillColor=none;align=left;verticalAlign=middle;whiteSpace=wrap;rounded=0;" parent="1" vertex="1">
          <mxGeometry x="343" y="388.5" width="170" height="220" as="geometry" />
        </mxCell>
        <mxCell id="-lhkFG2HZT-Equ-z4yoy-10" value="" style="endArrow=none;html=1;rounded=0;entryX=0.089;entryY=0.796;entryDx=0;entryDy=0;entryPerimeter=0;" parent="1" target="1ea317790d2ca983-1" edge="1">
          <mxGeometry width="50" height="50" relative="1" as="geometry">
            <mxPoint x="340" y="603.5" as="sourcePoint" />
            <mxPoint x="340" y="330" as="targetPoint" />
          </mxGeometry>
        </mxCell>
        <mxCell id="-lhkFG2HZT-Equ-z4yoy-11" value="" style="endArrow=none;html=1;rounded=0;entryX=0;entryY=1;entryDx=0;entryDy=0;" parent="1" target="1ea317790d2ca983-1" edge="1">
          <mxGeometry width="50" height="50" relative="1" as="geometry">
            <mxPoint x="347.58" y="584.5" as="sourcePoint" />
            <mxPoint x="350" y="330" as="targetPoint" />
          </mxGeometry>
        </mxCell>
        <mxCell id="-lhkFG2HZT-Equ-z4yoy-12" value="" style="endArrow=none;html=1;rounded=0;entryX=0.217;entryY=0.897;entryDx=0;entryDy=0;entryPerimeter=0;" parent="1" target="1ea317790d2ca983-1" edge="1">
          <mxGeometry width="50" height="50" relative="1" as="geometry">
            <mxPoint x="359" y="572.5" as="sourcePoint" />
            <mxPoint x="359" y="332.5" as="targetPoint" />
          </mxGeometry>
        </mxCell>
        <mxCell id="-lhkFG2HZT-Equ-z4yoy-13" value="" style="endArrow=none;html=1;rounded=0;entryX=0.266;entryY=0.94;entryDx=0;entryDy=0;entryPerimeter=0;" parent="1" target="1ea317790d2ca983-1" edge="1">
          <mxGeometry width="50" height="50" relative="1" as="geometry">
            <mxPoint x="368.58" y="557.5" as="sourcePoint" />
            <mxPoint x="369" y="330" as="targetPoint" />
          </mxGeometry>
        </mxCell>
        <mxCell id="-lhkFG2HZT-Equ-z4yoy-14" value="" style="endArrow=none;html=1;rounded=0;entryX=0.311;entryY=0.952;entryDx=0;entryDy=0;entryPerimeter=0;" parent="1" target="1ea317790d2ca983-1" edge="1">
          <mxGeometry width="50" height="50" relative="1" as="geometry">
            <mxPoint x="379" y="545.5" as="sourcePoint" />
            <mxPoint x="379" y="330" as="targetPoint" />
          </mxGeometry>
        </mxCell>
        <mxCell id="-lhkFG2HZT-Equ-z4yoy-15" value="" style="endArrow=none;html=1;rounded=0;entryX=0.356;entryY=0.983;entryDx=0;entryDy=0;entryPerimeter=0;" parent="1" target="1ea317790d2ca983-1" edge="1">
          <mxGeometry width="50" height="50" relative="1" as="geometry">
            <mxPoint x="386.58" y="528.5" as="sourcePoint" />
            <mxPoint x="387" y="330" as="targetPoint" />
          </mxGeometry>
        </mxCell>
        <mxCell id="-lhkFG2HZT-Equ-z4yoy-16" value="" style="endArrow=none;html=1;rounded=0;entryX=0.413;entryY=0.986;entryDx=0;entryDy=0;entryPerimeter=0;" parent="1" target="1ea317790d2ca983-1" edge="1">
          <mxGeometry width="50" height="50" relative="1" as="geometry">
            <mxPoint x="398" y="515" as="sourcePoint" />
            <mxPoint x="398" y="325" as="targetPoint" />
          </mxGeometry>
        </mxCell>
        <mxCell id="-lhkFG2HZT-Equ-z4yoy-17" value="" style="endArrow=none;html=1;rounded=0;entryX=0.473;entryY=0.995;entryDx=0;entryDy=0;entryPerimeter=0;" parent="1" target="1ea317790d2ca983-1" edge="1">
          <mxGeometry width="50" height="50" relative="1" as="geometry">
            <mxPoint x="407.58" y="499.5" as="sourcePoint" />
            <mxPoint x="410" y="330" as="targetPoint" />
          </mxGeometry>
        </mxCell>
        <mxCell id="-lhkFG2HZT-Equ-z4yoy-18" value="" style="endArrow=none;html=1;rounded=0;entryX=0.53;entryY=1.011;entryDx=0;entryDy=0;entryPerimeter=0;" parent="1" target="1ea317790d2ca983-1" edge="1">
          <mxGeometry width="50" height="50" relative="1" as="geometry">
            <mxPoint x="419" y="486.5" as="sourcePoint" />
            <mxPoint x="420" y="330" as="targetPoint" />
          </mxGeometry>
        </mxCell>
        <mxCell id="-lhkFG2HZT-Equ-z4yoy-19" value="" style="endArrow=none;html=1;rounded=0;entryX=0.591;entryY=0.992;entryDx=0;entryDy=0;entryPerimeter=0;" parent="1" target="1ea317790d2ca983-1" edge="1">
          <mxGeometry width="50" height="50" relative="1" as="geometry">
            <mxPoint x="428.58" y="471.5" as="sourcePoint" />
            <mxPoint x="429" y="330" as="targetPoint" />
          </mxGeometry>
        </mxCell>
        <mxCell id="-lhkFG2HZT-Equ-z4yoy-20" value="" style="endArrow=none;html=1;rounded=0;entryX=0.659;entryY=0.98;entryDx=0;entryDy=0;entryPerimeter=0;" parent="1" target="1ea317790d2ca983-1" edge="1">
          <mxGeometry width="50" height="50" relative="1" as="geometry">
            <mxPoint x="440" y="443" as="sourcePoint" />
            <mxPoint x="440" y="330" as="targetPoint" />
          </mxGeometry>
        </mxCell>
        <mxCell id="-lhkFG2HZT-Equ-z4yoy-21" value="" style="endArrow=none;html=1;rounded=0;entryX=0.732;entryY=0.949;entryDx=0;entryDy=0;entryPerimeter=0;" parent="1" target="1ea317790d2ca983-1" edge="1">
          <mxGeometry width="50" height="50" relative="1" as="geometry">
            <mxPoint x="449.58" y="428" as="sourcePoint" />
            <mxPoint x="450" y="330" as="targetPoint" />
          </mxGeometry>
        </mxCell>
        <mxCell id="-lhkFG2HZT-Equ-z4yoy-22" value="" style="endArrow=none;html=1;rounded=0;entryX=0.793;entryY=0.9;entryDx=0;entryDy=0;entryPerimeter=0;" parent="1" target="1ea317790d2ca983-1" edge="1">
          <mxGeometry width="50" height="50" relative="1" as="geometry">
            <mxPoint x="461" y="415" as="sourcePoint" />
            <mxPoint x="460" y="330" as="targetPoint" />
          </mxGeometry>
        </mxCell>
        <mxCell id="-lhkFG2HZT-Equ-z4yoy-23" value="" style="endArrow=none;html=1;rounded=0;entryX=1;entryY=1;entryDx=0;entryDy=0;" parent="1" target="1ea317790d2ca983-1" edge="1">
          <mxGeometry width="50" height="50" relative="1" as="geometry">
            <mxPoint x="470.58" y="400" as="sourcePoint" />
            <mxPoint x="470" y="330" as="targetPoint" />
          </mxGeometry>
        </mxCell>
        <mxCell id="-lhkFG2HZT-Equ-z4yoy-24" value="URL&lt;br&gt;&amp;nbsp; &amp;nbsp;Title&lt;br&gt;&amp;nbsp; &amp;nbsp; &amp;nbsp; Views&lt;br&gt;&amp;nbsp; &amp;nbsp; &amp;nbsp; &amp;nbsp; &amp;nbsp;Likes&lt;br&gt;&amp;nbsp; &amp;nbsp; &amp;nbsp; &amp;nbsp; &amp;nbsp; &amp;nbsp; Comments&lt;br&gt;&amp;nbsp; &amp;nbsp; &amp;nbsp; &amp;nbsp; &amp;nbsp; &amp;nbsp; &amp;nbsp; &amp;nbsp;Licensed&lt;br&gt;&amp;nbsp; &amp;nbsp; &amp;nbsp; &amp;nbsp; &amp;nbsp; &amp;nbsp; &amp;nbsp; &amp;nbsp; &amp;nbsp; Official" style="text;html=1;strokeColor=none;fillColor=none;align=left;verticalAlign=middle;whiteSpace=wrap;rounded=0;" parent="1" vertex="1">
          <mxGeometry x="590" y="140" width="110" height="110" as="geometry" />
        </mxCell>
        <mxCell id="-lhkFG2HZT-Equ-z4yoy-25" value="" style="endArrow=none;html=1;rounded=0;exitX=0;exitY=0;exitDx=0;exitDy=0;" parent="1" source="1ea317790d2ca983-9" edge="1">
          <mxGeometry width="50" height="50" relative="1" as="geometry">
            <mxPoint x="540" y="200" as="sourcePoint" />
            <mxPoint x="590" y="150" as="targetPoint" />
          </mxGeometry>
        </mxCell>
        <mxCell id="-lhkFG2HZT-Equ-z4yoy-26" value="" style="endArrow=none;html=1;rounded=0;exitX=0.238;exitY=0.08;exitDx=0;exitDy=0;exitPerimeter=0;" parent="1" source="1ea317790d2ca983-9" edge="1">
          <mxGeometry width="50" height="50" relative="1" as="geometry">
            <mxPoint x="610" y="280" as="sourcePoint" />
            <mxPoint x="600" y="166" as="targetPoint" />
          </mxGeometry>
        </mxCell>
        <mxCell id="-lhkFG2HZT-Equ-z4yoy-27" value="" style="endArrow=none;html=1;rounded=0;exitX=0.331;exitY=0.059;exitDx=0;exitDy=0;exitPerimeter=0;" parent="1" source="1ea317790d2ca983-9" edge="1">
          <mxGeometry width="50" height="50" relative="1" as="geometry">
            <mxPoint x="618" y="295" as="sourcePoint" />
            <mxPoint x="610" y="182" as="targetPoint" />
          </mxGeometry>
        </mxCell>
        <mxCell id="-lhkFG2HZT-Equ-z4yoy-28" value="" style="endArrow=none;html=1;rounded=0;exitX=0.423;exitY=0.016;exitDx=0;exitDy=0;exitPerimeter=0;" parent="1" source="1ea317790d2ca983-9" edge="1">
          <mxGeometry width="50" height="50" relative="1" as="geometry">
            <mxPoint x="625" y="292" as="sourcePoint" />
            <mxPoint x="620" y="196" as="targetPoint" />
          </mxGeometry>
        </mxCell>
        <mxCell id="-lhkFG2HZT-Equ-z4yoy-29" value="" style="endArrow=none;html=1;rounded=0;exitX=0.533;exitY=-0.021;exitDx=0;exitDy=0;exitPerimeter=0;" parent="1" source="1ea317790d2ca983-9" edge="1">
          <mxGeometry width="50" height="50" relative="1" as="geometry">
            <mxPoint x="632" y="289" as="sourcePoint" />
            <mxPoint x="630" y="209" as="targetPoint" />
          </mxGeometry>
        </mxCell>
        <mxCell id="-lhkFG2HZT-Equ-z4yoy-30" value="" style="endArrow=none;html=1;rounded=0;exitX=0.622;exitY=0.021;exitDx=0;exitDy=0;exitPerimeter=0;" parent="1" source="1ea317790d2ca983-9" edge="1">
          <mxGeometry width="50" height="50" relative="1" as="geometry">
            <mxPoint x="640" y="289" as="sourcePoint" />
            <mxPoint x="640" y="224" as="targetPoint" />
          </mxGeometry>
        </mxCell>
        <mxCell id="-lhkFG2HZT-Equ-z4yoy-31" value="" style="endArrow=none;html=1;rounded=0;exitX=0.74;exitY=0.085;exitDx=0;exitDy=0;exitPerimeter=0;" parent="1" source="1ea317790d2ca983-9" edge="1">
          <mxGeometry width="50" height="50" relative="1" as="geometry">
            <mxPoint x="647" y="290" as="sourcePoint" />
            <mxPoint x="650" y="238" as="targetPoint" />
          </mxGeometry>
        </mxCell>
        <mxCell id="-lhkFG2HZT-Equ-z4yoy-32" value="Name" style="text;html=1;strokeColor=none;fillColor=none;align=center;verticalAlign=middle;whiteSpace=wrap;rounded=0;" parent="1" vertex="1">
          <mxGeometry x="848" y="345" width="60" height="30" as="geometry" />
        </mxCell>
        <mxCell id="-lhkFG2HZT-Equ-z4yoy-33" value="" style="endArrow=none;html=1;rounded=0;entryX=0.5;entryY=1;entryDx=0;entryDy=0;" parent="1" target="1ea317790d2ca983-10" edge="1">
          <mxGeometry width="50" height="50" relative="1" as="geometry">
            <mxPoint x="858" y="360" as="sourcePoint" />
            <mxPoint x="860" y="286" as="targetPoint" />
          </mxGeometry>
        </mxCell>
        <mxCell id="fviccIfsdbxI5g3kTzcu-1" value="genre" style="ellipse;whiteSpace=wrap;html=1;" vertex="1" parent="1">
          <mxGeometry x="170.5" y="52" width="82" height="54" as="geometry" />
        </mxCell>
        <mxCell id="fviccIfsdbxI5g3kTzcu-2" value="" style="endArrow=classic;html=1;rounded=0;exitX=0.5;exitY=0;exitDx=0;exitDy=0;entryX=0.334;entryY=1.048;entryDx=0;entryDy=0;entryPerimeter=0;" edge="1" parent="1" source="1ea317790d2ca983-3" target="fviccIfsdbxI5g3kTzcu-1">
          <mxGeometry width="50" height="50" relative="1" as="geometry">
            <mxPoint x="524" y="273" as="sourcePoint" />
            <mxPoint x="574" y="223" as="targetPoint" />
          </mxGeometry>
        </mxCell>
        <mxCell id="fviccIfsdbxI5g3kTzcu-3" value="hasGenre" style="edgeLabel;html=1;align=center;verticalAlign=middle;resizable=0;points=[];" vertex="1" connectable="0" parent="fviccIfsdbxI5g3kTzcu-2">
          <mxGeometry x="0.0947" y="1" relative="1" as="geometry">
            <mxPoint as="offset" />
          </mxGeometry>
        </mxCell>
        <mxCell id="fviccIfsdbxI5g3kTzcu-4" value="Person" style="ellipse;whiteSpace=wrap;html=1;" vertex="1" parent="1">
          <mxGeometry x="11" y="143" width="94" height="51" as="geometry" />
        </mxCell>
        <mxCell id="fviccIfsdbxI5g3kTzcu-5" value="" style="endArrow=classic;html=1;rounded=0;exitX=0;exitY=0;exitDx=0;exitDy=0;entryX=1;entryY=1;entryDx=0;entryDy=0;" edge="1" parent="1" source="1ea317790d2ca983-3" target="fviccIfsdbxI5g3kTzcu-4">
          <mxGeometry width="50" height="50" relative="1" as="geometry">
            <mxPoint x="524" y="365" as="sourcePoint" />
            <mxPoint x="574" y="315" as="targetPoint" />
          </mxGeometry>
        </mxCell>
        <mxCell id="fviccIfsdbxI5g3kTzcu-6" value="isA" style="edgeLabel;html=1;align=center;verticalAlign=middle;resizable=0;points=[];" vertex="1" connectable="0" parent="fviccIfsdbxI5g3kTzcu-5">
          <mxGeometry x="0.1003" y="3" relative="1" as="geometry">
            <mxPoint as="offset" />
          </mxGeometry>
        </mxCell>
        <mxCell id="fviccIfsdbxI5g3kTzcu-7" value="Name" style="text;html=1;strokeColor=none;fillColor=none;align=left;verticalAlign=middle;whiteSpace=wrap;rounded=0;" vertex="1" parent="1">
          <mxGeometry x="234" y="11" width="60" height="30" as="geometry" />
        </mxCell>
        <mxCell id="fviccIfsdbxI5g3kTzcu-8" value="" style="endArrow=none;html=1;rounded=0;exitX=0.602;exitY=0.019;exitDx=0;exitDy=0;exitPerimeter=0;entryX=0;entryY=0.5;entryDx=0;entryDy=0;" edge="1" parent="1" source="fviccIfsdbxI5g3kTzcu-1" target="fviccIfsdbxI5g3kTzcu-7">
          <mxGeometry width="50" height="50" relative="1" as="geometry">
            <mxPoint x="524" y="294" as="sourcePoint" />
            <mxPoint x="574" y="244" as="targetPoint" />
          </mxGeometry>
        </mxCell>
        <mxCell id="fviccIfsdbxI5g3kTzcu-9" value="Name" style="text;html=1;strokeColor=none;fillColor=none;align=center;verticalAlign=middle;whiteSpace=wrap;rounded=0;" vertex="1" parent="1">
          <mxGeometry x="15" y="224" width="60" height="30" as="geometry" />
        </mxCell>
        <mxCell id="fviccIfsdbxI5g3kTzcu-11" value="Playlist" style="ellipse;whiteSpace=wrap;html=1;" vertex="1" parent="1">
          <mxGeometry x="413" y="84" width="90" height="59" as="geometry" />
        </mxCell>
        <mxCell id="fviccIfsdbxI5g3kTzcu-12" value="Name" style="text;html=1;strokeColor=none;fillColor=none;align=center;verticalAlign=middle;whiteSpace=wrap;rounded=0;" vertex="1" parent="1">
          <mxGeometry x="464" y="26" width="60" height="30" as="geometry" />
        </mxCell>
        <mxCell id="fviccIfsdbxI5g3kTzcu-13" value="" style="endArrow=none;html=1;rounded=0;entryX=0;entryY=0.5;entryDx=0;entryDy=0;exitX=0.5;exitY=0;exitDx=0;exitDy=0;" edge="1" parent="1" source="fviccIfsdbxI5g3kTzcu-11" target="fviccIfsdbxI5g3kTzcu-12">
          <mxGeometry width="50" height="50" relative="1" as="geometry">
            <mxPoint x="524" y="288" as="sourcePoint" />
            <mxPoint x="574" y="238" as="targetPoint" />
          </mxGeometry>
        </mxCell>
        <mxCell id="fviccIfsdbxI5g3kTzcu-14" value="" style="endArrow=classic;html=1;rounded=0;exitX=0.769;exitY=0.097;exitDx=0;exitDy=0;exitPerimeter=0;entryX=0.384;entryY=0.956;entryDx=0;entryDy=0;entryPerimeter=0;" edge="1" parent="1" source="1ea317790d2ca983-1" target="fviccIfsdbxI5g3kTzcu-11">
          <mxGeometry width="50" height="50" relative="1" as="geometry">
            <mxPoint x="524" y="288" as="sourcePoint" />
            <mxPoint x="574" y="238" as="targetPoint" />
          </mxGeometry>
        </mxCell>
        <mxCell id="fviccIfsdbxI5g3kTzcu-15" value="belongsTo" style="edgeLabel;html=1;align=center;verticalAlign=middle;resizable=0;points=[];" vertex="1" connectable="0" parent="fviccIfsdbxI5g3kTzcu-14">
          <mxGeometry x="0.0756" y="-2" relative="1" as="geometry">
            <mxPoint as="offset" />
          </mxGeometry>
        </mxCell>
        <mxCell id="fviccIfsdbxI5g3kTzcu-16" value="" style="endArrow=classic;html=1;rounded=0;exitX=0;exitY=0.5;exitDx=0;exitDy=0;entryX=1;entryY=0.5;entryDx=0;entryDy=0;" edge="1" parent="1" source="fviccIfsdbxI5g3kTzcu-11" target="fviccIfsdbxI5g3kTzcu-1">
          <mxGeometry width="50" height="50" relative="1" as="geometry">
            <mxPoint x="524" y="288" as="sourcePoint" />
            <mxPoint x="574" y="238" as="targetPoint" />
          </mxGeometry>
        </mxCell>
        <mxCell id="fviccIfsdbxI5g3kTzcu-20" value="" style="curved=1;endArrow=classic;html=1;rounded=0;exitX=0.423;exitY=-0.022;exitDx=0;exitDy=0;exitPerimeter=0;entryX=0;entryY=0.5;entryDx=0;entryDy=0;" edge="1" parent="1" source="fviccIfsdbxI5g3kTzcu-1" target="fviccIfsdbxI5g3kTzcu-1">
          <mxGeometry width="50" height="50" relative="1" as="geometry">
            <mxPoint x="524" y="272" as="sourcePoint" />
            <mxPoint x="574" y="222" as="targetPoint" />
            <Array as="points">
              <mxPoint x="148" y="19" />
            </Array>
          </mxGeometry>
        </mxCell>
        <mxCell id="fviccIfsdbxI5g3kTzcu-21" value="isNarrowThen" style="edgeLabel;html=1;align=center;verticalAlign=middle;resizable=0;points=[];" vertex="1" connectable="0" parent="fviccIfsdbxI5g3kTzcu-20">
          <mxGeometry x="-0.5766" y="5" relative="1" as="geometry">
            <mxPoint x="-37" y="-1" as="offset" />
          </mxGeometry>
        </mxCell>
      </root>
    </mxGraphModel>
  </diagram>
</mxfile>
